<svg viewBox="0 -50 512.001 512" xmlns="http://www.w3.org/2000/svg"><path d="m512 74.785156h-460.734375v336.292969h409.472656c28.3125 0 51.261719-22.953125 51.261719-51.265625zm0 0" fill="#e9edf5"/><path d="m460.734375 0v308.550781c28.3125 0 51.265625 22.949219 51.265625 51.261719v-308.546875c0-28.3125-22.949219-51.265625-51.265625-51.265625zm0 0" fill="#bec3d2"/><path d="m51.265625 0c-28.316406 0-51.265625 22.953125-51.265625 51.265625v308.546875h102.527344v-308.546875c0-28.3125-22.953125-51.265625-51.261719-51.265625zm0 0" fill="#dce1eb"/><path d="m51.265625 0v359.8125h51.261719v-308.546875c0-28.3125-22.953125-51.265625-51.261719-51.265625zm0 0" fill="#cdd2e1"/><path d="m102.527344 359.8125c0 28.3125-22.949219 51.265625-51.261719 51.265625s-51.265625-22.953125-51.265625-51.265625 22.953125-51.265625 51.265625-51.265625 51.261719 22.953125 51.261719 51.265625zm0 0" fill="#f2f6fc"/><path d="m102.527344 359.8125c0 28.3125-22.953125 51.265625-51.265625 51.265625 0-38.421875 0-65.542969 0-102.527344 28.3125 0 51.265625 22.949219 51.265625 51.261719zm0 0" fill="#dce1eb"/></svg>