<svg id="Capa_1" enable-background="new 0 0 512 512" height="512" viewBox="0 0 512 512" width="512" xmlns="http://www.w3.org/2000/svg"><g><path d="m193.592 192.309 151.424 316.238c1.365 2.85 4.687 4.176 7.639 3.05l1.091-.416c7.955-3.035 12.182-11.729 9.656-19.86l-87.629-282.093c-.574-1.848-2.09-3.251-3.977-3.68l-37.588-8.554c-.684-.14-1.25-.621-1.499-1.273l-6.107-16.005z" fill="#b6c4cf"/><path d="m353.744 511.179-1.086.42c-2.94 1.127-6.259-.195-7.632-3.032 1.516-3.442 1.844-7.427.645-11.279l-87.631-282.093c-.574-1.854-2.09-3.247-3.975-3.678l-37.587-8.554c-.686-.144-1.25-.625-1.496-1.281l-5.85-15.305 17.467-6.659 6.106 16.002c.256.656.82 1.137 1.506 1.27l37.587 8.554c1.885.43 3.401 1.834 3.975 3.678l87.631 282.103c2.52 8.124-1.7 16.821-9.66 19.854z" fill="#9facba"/><path d="m100.638 3.913c-32.674 12.189-49.113 48.634-36.703 81.163 10.177 26.674 44.042 43.272 69.801 51.307 2.884.9 9.332 3.041 14.821 4.876 5.928 1.983 10.959 6.005 14.196 11.352l23.008 38.008c2.138 3.532 6.496 5.03 10.354 3.558l30.225-11.532c4.408-1.682 6.619-6.619 4.937-11.028l-49.809-130.542c-12.334-32.326-48.413-49.256-80.83-37.162z" fill="#fe93bb"/><path d="m226.343 182.648-13.318 5.081c1.25-2.141 1.547-4.815.584-7.325l-49.798-130.545c-11.945-31.287-46.131-48.159-77.725-38.222 4.385-3.135 9.261-5.747 14.557-7.724 32.414-12.089 68.495 4.835 80.829 37.167l49.798 130.535c1.691 4.415-.522 9.353-4.927 11.033z" fill="#fe76a8"/><g><circle cx="122.303" cy="61.498" fill="#f9f3f1" r="35.247"/><path d="m155.233 74.066c-6.936 18.184-27.302 27.302-45.496 20.366-6.557-2.51-11.935-6.751-15.807-12.017 17.948 6.321 37.772-2.797 44.605-20.684 4.436-11.628 2.305-24.146-4.548-33.479.297.103.584.205.881.318 18.182 6.936 27.31 27.302 20.365 45.496z" fill="#f3eae6"/></g><path d="m317.382 192.309-151.424 316.239c-1.365 2.85-4.687 4.176-7.639 3.05l-1.091-.416c-7.955-3.035-12.182-11.729-9.656-19.86l87.628-282.095c.574-1.848 2.09-3.251 3.977-3.68l37.588-8.554c.684-.14 1.25-.621 1.499-1.273l6.107-16.005z" fill="#d9e7ec"/><path d="m317.386 192.309-151.424 316.237c-1.373 2.848-4.692 4.18-7.642 3.053l-1.096-.42c-5.132-1.957-8.718-6.28-9.927-11.289l150.799-314.936z" fill="#c5d3dd"/><circle cx="262.031" cy="231.581" fill="#b6c4cf" r="7.683"/><path d="m411.36 3.913c32.674 12.189 49.114 48.635 36.704 81.164-10.177 26.674-44.042 43.272-69.801 51.307-2.884.9-9.332 3.041-14.821 4.876-5.928 1.983-10.959 6.005-14.195 11.352l-23.008 38.008c-2.138 3.532-6.496 5.03-10.354 3.558l-30.225-11.532c-4.408-1.682-6.619-6.619-4.937-11.028l49.807-130.543c12.334-32.326 48.413-49.256 80.83-37.162z" fill="#fe93bb"/><path d="m448.061 85.08c-10.173 26.666-44.041 43.273-69.796 51.304-2.889.902-9.333 3.043-14.824 4.876-5.932 1.977-10.962 6.003-14.199 11.351l-22.999 38.007c-2.141 3.534-6.505 5.03-10.357 3.555l-12.252-4.672c1.393-.697 2.602-1.782 3.452-3.196l26.697-46.674c3.237-5.348 8.267-9.363 14.189-11.351 5.491-1.834 11.935-3.975 14.824-4.876 25.755-8.032 59.623-24.628 69.806-51.304 8.503-22.282 3.463-46.408-11.064-63.311 25.765 15.295 37.577 47.34 26.523 76.291z" fill="#fe76a8"/><circle cx="389.695" cy="61.498" fill="#f9f3f1" r="35.247"/><path d="m422.624 74.067c-6.936 18.184-27.302 27.302-45.496 20.366-6.557-2.51-11.935-6.751-15.807-12.017 17.948 6.321 37.772-2.797 44.605-20.684 4.436-11.628 2.305-24.146-4.548-33.479.297.103.584.205.881.318 18.183 6.936 27.311 27.301 20.365 45.496z" fill="#f3eae6"/></g></svg>